<?xml version="1.0" encoding="utf-8"?>
<!-- Generator: Adobe Illustrator 17.0.0, SVG Export Plug-In . SVG Version: 6.00 Build 0)  -->
<!DOCTYPE svg PUBLIC "-//W3C//DTD SVG 1.1//EN" "http://www.w3.org/Graphics/SVG/1.1/DTD/svg11.dtd">
<svg version="1.1" id="Layer_1" xmlns="http://www.w3.org/2000/svg" xmlns:xlink="http://www.w3.org/1999/xlink" x="0px" y="0px"
	 width="84.382px" height="55.931px" viewBox="0 0 84.382 55.931" enable-background="new 0 0 84.382 55.931" xml:space="preserve">
<path fill="#808285" d="M0.25,6.619C0.17,6.539,0.082,6.444,0,6.364v42.463c0.082-0.08,0.17-0.175,0.264-0.229l21.737-20.975
	L0.25,6.619z M26.504,23.268l4.508,4.354l4.47,4.3c1.859,1.807,4.434,2.791,7.057,2.777c2.621,0.014,5.19-0.97,7.057-2.777
	l3.769-3.626l4.522-4.354L80.217,2.413C81.281,1.389,81.847,0.5,82.071,0H2.737c0.309,0.486,0.755,1.052,1.429,1.672L26.504,23.268z
	 M57.886,32.623l-4.375,4.232c-3.107,2.98-7.064,4.395-10.973,4.395c-3.93,0-7.879-1.443-10.966-4.408l-5.069-4.867L4.166,53.505
	c-1.092,1.038-1.658,1.955-1.873,2.427h79.367c-0.311-0.486-0.762-1.066-1.429-1.726L57.886,32.623z M84.119,7.32l-21.73,20.975
	l21.744,21.003c0.094,0.068,0.162,0.175,0.248,0.243V7.051C84.295,7.145,84.213,7.239,84.119,7.32z"/>
</svg>
