<?xml version="1.0" encoding="utf-8"?>
<!-- Generator: Adobe Illustrator 17.0.0, SVG Export Plug-In . SVG Version: 6.00 Build 0)  -->
<!DOCTYPE svg PUBLIC "-//W3C//DTD SVG 1.1//EN" "http://www.w3.org/Graphics/SVG/1.1/DTD/svg11.dtd">
<svg version="1.1" id="Layer_1" xmlns="http://www.w3.org/2000/svg" xmlns:xlink="http://www.w3.org/1999/xlink" x="0px" y="0px"
	 width="90.692px" height="71.813px" viewBox="0 0 90.692 71.813" enable-background="new 0 0 90.692 71.813" xml:space="preserve">
<g>
	<path fill="#808285" d="M67.192,35.739c8.486-0.308,14.091-12.306,14.237-19.795c0-5.351-1.545-9.403-4.173-12.079
		C74.641,1.204,71.024,0,67.192,0c-3.853,0-7.465,1.204-10.086,3.865c-2.628,2.676-4.166,6.728-4.166,12.079
		C53.101,22.966,58.665,35.378,67.192,35.739z"/>
	<path fill="#808285" d="M20.05,48.285c-5.698,0-10.319-4.48-10.319-10.005c0-0.307,0.073-0.601,0.1-0.882
		c-5.15,3.879-8.588,10.579-8.588,16.866c0,7.838,0.348,13.496,1.004,17.549h33.645c0.675-4.039,1.063-9.685,1.063-17.549
		c0-5.095-2.608-10.941-6.687-15.021C29.766,44.313,25.414,48.285,20.05,48.285z"/>
	<path fill="#808285" d="M73.638,37.01c0.053,0.414,0.121,0.829,0.121,1.27c0,3.986-2.789,7.317-6.567,8.347
		c-3.792-1.03-6.581-4.361-6.581-8.347c0-0.481,0.074-0.922,0.141-1.35c-9.959,2.1-17.074,7.718-17.074,15.195
		c0,8.921,0.668,15.221,1.872,19.689h21.642h21.555c1.257-4.454,1.945-10.741,1.945-19.689
		C90.692,45.156,83.576,39.257,73.638,37.01z"/>
	<path fill="#808285" d="M32.891,14.981C31.365,6.567,26.015,0.093,19.093,0C12.138,0.093,6.781,6.567,5.29,14.981
		C2.301,15.341,0,17.856,0,20.92c0,3.304,2.682,5.992,5.999,5.992c0.221,0,0.448-0.027,0.668-0.041
		c2.382,4.788,6.908,8.788,12.425,8.868c5.544-0.067,10.166-3.973,12.541-8.868c0.207,0.014,0.408,0.041,0.642,0.041
		c3.31,0,5.998-2.689,5.998-5.992C38.273,17.83,35.913,15.302,32.891,14.981z"/>
</g>
</svg>
